<svg width="48" height="42" viewBox="0 0 48 42" fill="none" xmlns="http://www.w3.org/2000/svg">
<path d="M20.3428 4.03319L2.57592 33.6936C2.20961 34.328 2.01579 35.0472 2.01374 35.7797C2.01168 36.5123 2.20148 37.2326 2.56423 37.869C2.92698 38.5054 3.45006 39.0357 4.0814 39.4072C4.71275 39.7787 5.43037 39.9784 6.16286 39.9865H41.6966C42.4291 39.9784 43.1467 39.7787 43.7781 39.4072C44.4094 39.0357 44.9325 38.5054 45.2952 37.869C45.658 37.2326 45.8478 36.5123 45.8457 35.7797C45.8437 35.0472 45.6499 34.328 45.2835 33.6936L27.5167 4.03319C27.1427 3.41672 26.6162 2.90702 25.9879 2.55329C25.3596 2.19955 24.6508 2.01372 23.9297 2.01372C23.2087 2.01372 22.4998 2.19955 21.8716 2.55329C21.2433 2.90702 20.7167 3.41672 20.3428 4.03319Z" stroke="#0E0E52" stroke-width="4" stroke-linecap="round" stroke-linejoin="round"/>
<path d="M23.9296 14.8148V23.2053" stroke="#0E0E52" stroke-width="4" stroke-linecap="round" stroke-linejoin="round"/>
<path d="M23.9296 31.5956H23.9522" stroke="#0E0E52" stroke-width="4" stroke-linecap="round" stroke-linejoin="round"/>
</svg>
