<svg width="848" height="538" viewBox="0 0 848 538" fill="none" xmlns="http://www.w3.org/2000/svg">
<g clip-path="url(#clip0_98_121)">
<path d="M47.5392 535.565C34.4571 534.494 22.9072 525.073 16.3389 513.761C14.1362 509.968 12.6269 504.992 15.1213 501.381C15.8353 500.348 16.822 499.531 17.9727 499.02C19.1235 498.509 20.3935 498.324 21.643 498.486C22.8925 498.648 24.0728 499.15 25.054 499.937C26.0353 500.723 26.7792 501.764 27.204 502.945C26.4006 498.513 26.0553 494.011 26.1737 489.509C26.2742 485.698 26.9978 481.388 30.1819 479.268C33.8759 476.809 39.2004 478.762 41.8873 482.285C44.5742 485.808 45.3033 490.392 45.9482 494.768C45.4217 492.916 45.3703 490.961 45.7988 489.084C46.2273 487.207 47.122 485.466 48.4009 484.022C49.6798 482.578 51.3022 481.476 53.1195 480.818C54.9369 480.159 56.8912 479.964 58.8036 480.252C64.2141 481.065 68.4524 485.728 70.1063 490.92C71.7601 496.111 71.2438 501.741 70.1793 507.083C68.9312 513.348 66.9055 519.562 63.2586 524.817C59.6117 530.071 54.1947 534.307 47.9099 535.593L47.5392 535.565Z" fill="#F2F2F2"/>
<path d="M848 112.668C848 136.034 840.704 158.823 827.121 177.881C813.538 196.938 794.34 211.322 772.183 219.043C771.478 219.287 770.762 219.532 770.047 219.755V105.27H621.862C621.905 104.558 621.958 103.846 622.022 103.144H770.047V80.7805C770.047 79.3712 769.484 78.0198 768.483 77.0232C767.481 76.0267 766.124 75.4666 764.708 75.466H627.938C628.184 74.7539 628.44 74.0417 628.718 73.3402C637.983 48.5856 655.692 27.8582 678.751 14.7793C701.809 1.70033 728.752 -2.8987 754.871 1.78566C780.99 6.47001 804.625 20.1399 821.648 40.4073C838.67 60.6746 847.997 86.2508 848 112.668Z" fill="#F2F2F2"/>
<path d="M764.708 73.3403H244.667C242.685 73.3425 240.785 74.1271 239.384 75.522C237.982 76.9168 237.194 78.808 237.192 80.7806V431.538C237.194 433.511 237.982 435.402 239.384 436.797C240.785 438.192 242.685 438.976 244.667 438.979H764.708C766.69 438.976 768.59 438.192 769.991 436.797C771.392 435.402 772.181 433.511 772.183 431.538V80.7806C772.181 78.808 771.392 76.9168 769.991 75.522C768.59 74.1271 766.69 73.3425 764.708 73.3403ZM770.047 431.538C770.047 432.948 769.484 434.299 768.483 435.296C767.482 436.292 766.124 436.852 764.708 436.853H244.667C243.251 436.852 241.893 436.292 240.892 435.296C239.891 434.299 239.328 432.948 239.328 431.538V80.7806C239.328 79.3713 239.891 78.0199 240.892 77.0233C241.893 76.0268 243.251 75.4667 244.667 75.4661H764.708C766.124 75.4667 767.482 76.0268 768.483 77.0233C769.484 78.0199 770.047 79.3713 770.047 80.7806V431.538Z" fill="#3F3D56"/>
<path d="M771.115 103.144H238.26V105.27H771.115V103.144Z" fill="#3F3D56"/>
<path d="M256.413 95.6611C259.952 95.6611 262.82 92.8058 262.82 89.2837C262.82 85.7615 259.952 82.9062 256.413 82.9062C252.875 82.9062 250.006 85.7615 250.006 89.2837C250.006 92.8058 252.875 95.6611 256.413 95.6611Z" fill="#3F3D56"/>
<path d="M274.834 95.6611C278.372 95.6611 281.241 92.8058 281.241 89.2837C281.241 85.7615 278.372 82.9062 274.834 82.9062C271.295 82.9062 268.427 85.7615 268.427 89.2837C268.427 92.8058 271.295 95.6611 274.834 95.6611Z" fill="#3F3D56"/>
<path d="M293.254 95.6611C296.792 95.6611 299.661 92.8058 299.661 89.2837C299.661 85.7615 296.792 82.9062 293.254 82.9062C289.715 82.9062 286.847 85.7615 286.847 89.2837C286.847 92.8058 289.715 95.6611 293.254 95.6611Z" fill="#3F3D56"/>
<path d="M383.487 146.68H289.516C287.535 146.683 285.635 147.467 284.233 148.862C282.832 150.257 282.044 152.148 282.042 154.121V247.656C282.044 249.629 282.832 251.52 284.233 252.915C285.635 254.31 287.535 255.094 289.516 255.096H383.487C385.469 255.094 387.369 254.31 388.77 252.915C390.171 251.52 390.96 249.629 390.962 247.656V154.121C390.96 152.148 390.171 150.257 388.77 148.862C387.369 147.467 385.469 146.683 383.487 146.68ZM388.826 247.656C388.826 249.065 388.263 250.417 387.262 251.413C386.26 252.41 384.903 252.97 383.487 252.971H289.516C288.101 252.97 286.743 252.41 285.742 251.413C284.74 250.417 284.178 249.065 284.177 247.656V154.121C284.178 152.711 284.74 151.36 285.742 150.363C286.743 149.367 288.101 148.807 289.516 148.806H383.487C384.903 148.807 386.26 149.367 387.262 150.363C388.263 151.36 388.826 152.711 388.826 154.121V247.656Z" fill="#3F3D56"/>
<path d="M552.207 147.212H458.236C456.396 147.215 454.633 147.945 453.332 149.239C452.031 150.534 451.299 152.29 451.295 154.121V247.656C451.299 249.487 452.031 251.243 453.332 252.538C454.633 253.832 456.396 254.561 458.236 254.565H552.207C554.046 254.561 555.81 253.832 557.111 252.538C558.412 251.243 559.144 249.487 559.148 247.656V154.121C559.144 152.29 558.412 150.534 557.111 149.239C555.81 147.945 554.046 147.215 552.207 147.212Z" fill="#3943B7"/>
<path d="M720.926 147.212H626.956C625.116 147.215 623.353 147.945 622.052 149.239C620.751 150.534 620.018 152.29 620.015 154.121V247.656C620.018 249.487 620.751 251.243 622.052 252.538C623.353 253.832 625.116 254.561 626.956 254.565H720.926C722.766 254.561 724.53 253.832 725.83 252.538C727.131 251.243 727.864 249.487 727.867 247.656V154.121C727.864 152.29 727.131 150.534 725.83 149.239C724.53 147.945 722.766 147.215 720.926 147.212Z" fill="#E6E6E6"/>
<path d="M383.487 287.515H289.516C287.677 287.518 285.913 288.247 284.612 289.542C283.311 290.837 282.579 292.592 282.575 294.424V387.959C282.579 389.79 283.311 391.546 284.612 392.84C285.913 394.135 287.677 394.864 289.516 394.868H383.487C385.327 394.864 387.09 394.135 388.391 392.84C389.692 391.546 390.424 389.79 390.428 387.959V294.424C390.424 292.592 389.692 290.837 388.391 289.542C387.09 288.247 385.327 287.518 383.487 287.515Z" fill="#E6E6E6"/>
<path d="M552.207 287.515H458.236C456.396 287.518 454.633 288.247 453.332 289.542C452.031 290.837 451.299 292.592 451.295 294.424V387.959C451.299 389.79 452.031 391.546 453.332 392.84C454.633 394.135 456.396 394.864 458.236 394.868H552.207C554.046 394.864 555.81 394.135 557.111 392.84C558.412 391.546 559.144 389.79 559.148 387.959V294.424C559.144 292.592 558.412 290.837 557.111 289.542C555.81 288.247 554.046 287.518 552.207 287.515Z" fill="#3943B7"/>
<path d="M720.926 287.515H626.956C625.116 287.518 623.353 288.247 622.052 289.542C620.751 290.837 620.018 292.592 620.015 294.424V387.959C620.018 389.79 620.751 391.546 622.052 392.84C623.353 394.135 625.116 394.864 626.956 394.868H720.926C722.766 394.864 724.53 394.135 725.83 392.84C727.131 391.546 727.864 389.79 727.867 387.959V294.424C727.864 292.592 727.131 290.837 725.83 289.542C724.53 288.247 722.766 287.518 720.926 287.515Z" fill="#E6E6E6"/>
<path d="M360.528 302.927H266.558C264.717 302.925 262.953 302.196 261.652 300.901C260.351 299.606 259.619 297.85 259.617 296.018V202.483C259.619 200.651 260.351 198.895 261.652 197.6C262.953 196.305 264.717 195.576 266.558 195.574H360.528C362.368 195.576 364.133 196.305 365.434 197.6C366.735 198.895 367.467 200.651 367.469 202.483V296.018C367.467 297.85 366.735 299.606 365.434 300.901C364.133 302.196 362.368 302.925 360.528 302.927Z" fill="#3943B7"/>
<path d="M216.502 523.041L229.017 519.218L220.158 469.349L201.686 474.991L216.502 523.041Z" fill="#A0616A"/>
<path d="M256.72 523.413L217.386 535.428L212.722 520.301L236.859 512.928C238.855 512.318 240.952 512.106 243.03 512.303C245.108 512.5 247.127 513.102 248.971 514.076C250.816 515.05 252.449 516.375 253.779 517.977C255.108 519.579 256.108 521.426 256.72 523.413Z" fill="#2F2E41"/>
<path d="M109.719 523.328L122.811 523.327L129.039 473.064L109.717 473.066L109.719 523.328Z" fill="#A0616A"/>
<path d="M148.059 535.426L106.914 535.428L106.913 519.605L132.161 519.604C134.249 519.604 136.316 520.013 138.245 520.808C140.174 521.603 141.926 522.768 143.402 524.238C144.879 525.707 146.05 527.451 146.849 529.371C147.648 531.291 148.059 533.348 148.059 535.426Z" fill="#2F2E41"/>
<path d="M108.78 377.628C107.704 376.69 106.848 375.528 106.273 374.225C105.697 372.921 105.416 371.508 105.448 370.085C105.48 368.661 105.826 367.262 106.46 365.986C107.094 364.71 108.002 363.588 109.119 362.699L119.27 235.476L139.912 240.609L123.384 364.712C124.76 366.679 125.364 369.08 125.08 371.46C124.797 373.841 123.646 376.035 121.846 377.627C120.045 379.219 117.721 380.098 115.313 380.099C112.905 380.099 110.58 379.22 108.78 377.628Z" fill="#A0616A"/>
<path d="M150.117 186.131C164.602 186.131 176.344 174.443 176.344 160.025C176.344 145.607 164.602 133.919 150.117 133.919C135.632 133.919 123.89 145.607 123.89 160.025C123.89 174.443 135.632 186.131 150.117 186.131Z" fill="#A0616A"/>
<path d="M127.311 231.562C121.393 223.475 121.211 212.338 127.586 204.603C131.746 199.555 138.705 195.515 150.323 195.515C181.29 195.515 193.037 219.962 193.037 219.962C193.037 219.962 205.851 243.346 198.376 264.604C190.901 285.862 190.901 287.988 190.901 287.988L141.78 283.736C141.78 283.736 150.067 262.657 127.311 231.562Z" fill="#CCCCCC"/>
<path d="M112.164 252.723L122.746 218.263C123.455 215.956 124.664 213.831 126.288 212.04C127.912 210.249 129.912 208.835 132.146 207.898C134.38 206.96 136.793 206.523 139.215 206.616C141.637 206.709 144.01 207.33 146.164 208.436C149.902 210.363 152.764 213.633 154.169 217.582C155.575 221.532 155.419 225.866 153.733 229.705L140.28 260.201L112.164 252.723Z" fill="#CCCCCC"/>
<path d="M189.833 282.673L231.479 497.379L209.054 503.757L154.594 362.391L130.034 506.946L106.541 510.134C106.541 510.134 96.2362 318.87 141.78 283.736L189.833 282.673Z" fill="#2F2E41"/>
<path d="M249.773 272.61C249.393 273.061 249.049 273.54 248.745 274.044L195.849 276.597L185.664 245.646L167.978 254.013L184.623 300.112L250.042 287.378C251.579 289.048 253.591 290.213 255.809 290.718C258.028 291.223 260.349 291.043 262.462 290.203C264.576 289.363 266.383 287.903 267.642 286.016C268.901 284.129 269.554 281.905 269.513 279.64C269.471 277.375 268.738 275.176 267.411 273.336C266.084 271.496 264.225 270.101 262.082 269.338C259.939 268.575 257.614 268.48 255.415 269.064C253.216 269.648 251.248 270.885 249.773 272.61Z" fill="#A0616A"/>
<path d="M160.578 223.049C160.294 220.653 160.543 218.224 161.307 215.934C162.07 213.644 163.33 211.548 164.997 209.796C166.663 208.044 168.696 206.678 170.952 205.793C173.207 204.909 175.631 204.529 178.05 204.68C182.251 204.948 186.192 206.797 189.074 209.851C191.956 212.904 193.564 216.935 193.571 221.125V254.431L164.807 258.836L160.578 223.049Z" fill="#CCCCCC"/>
<path d="M155.885 186.368C151.948 186.351 148.912 182.226 149.088 178.311C149.265 174.397 151.906 170.953 155.088 168.647C158.27 166.34 162.002 164.935 165.551 163.239C169.099 161.543 172.617 159.428 174.808 156.173C176.132 154.042 176.922 151.626 177.112 149.128C177.302 146.631 176.887 144.124 175.901 141.819C173.862 137.209 170.361 133.392 165.934 130.952C159.359 127.12 151.575 125.895 144.133 127.521C136.69 129.146 130.136 133.502 125.776 139.721L121.282 151.9C116.704 157.38 115.977 165.519 118.792 172.073C121.607 178.627 127.6 183.559 134.362 185.903C141.224 188.098 148.568 188.317 155.55 186.535" fill="#2F2E41"/>
<path d="M131.915 145.808C129.984 142.726 126.636 140.766 123.174 139.616C119.164 138.283 114.899 137.89 110.712 138.466C106.524 139.043 102.526 140.574 99.0304 142.94C95.5344 145.306 92.6342 148.443 90.5555 152.107C88.4769 155.771 87.276 159.864 87.0464 164.065C86.6795 170.777 88.7908 177.34 90.0315 183.947C91.2721 190.554 91.5189 197.852 87.859 203.5C85.0713 207.803 80.4226 210.512 75.8341 212.825C72.0099 214.752 67.8733 216.562 63.604 216.177C59.3346 215.793 55.0437 212.427 55.1569 208.162C53.7277 211.22 52.7627 214.473 52.2934 217.814C51.993 221.168 52.8236 224.787 55.2578 227.127C58.7957 230.526 64.4012 230.278 69.2633 229.544C79.789 227.956 90.4474 224.978 98.7631 218.362C107.079 211.746 112.597 200.851 110.407 190.481C109.492 186.149 107.342 182.194 105.605 178.12C103.868 174.045 102.511 169.588 103.31 165.233C103.782 162.989 104.743 160.877 106.126 159.043C107.508 157.21 109.278 155.701 111.31 154.623C115.421 152.496 120.124 151.786 124.683 152.605C127.672 153.093 131.404 153.851 133.177 151.407C133.646 150.632 133.886 149.741 133.869 148.837C133.851 147.932 133.576 147.051 133.077 146.295C132.054 144.801 130.751 143.516 129.24 142.512" fill="#2F2E41"/>
<path d="M329.414 537.132H1.27151C1.10423 537.133 0.938484 537.1 0.783796 537.037C0.629109 536.974 0.488516 536.88 0.370058 536.763C0.2516 536.645 0.157611 536.506 0.093483 536.352C0.0293548 536.198 -0.00366211 536.033 -0.00366211 535.867C-0.00366211 535.7 0.0293548 535.535 0.093483 535.382C0.157611 535.228 0.2516 535.088 0.370058 534.97C0.488516 534.853 0.629109 534.76 0.783796 534.696C0.938484 534.633 1.10423 534.601 1.27151 534.601H329.414C329.582 534.601 329.747 534.633 329.902 534.696C330.057 534.76 330.197 534.853 330.316 534.97C330.434 535.088 330.528 535.228 330.592 535.382C330.656 535.535 330.689 535.7 330.689 535.867C330.689 536.033 330.656 536.198 330.592 536.352C330.528 536.506 330.434 536.645 330.316 536.763C330.197 536.88 330.057 536.974 329.902 537.037C329.747 537.1 329.582 537.133 329.414 537.132Z" fill="#3F3D56"/>
</g>
<defs>
<clipPath id="clip0_98_121">
<rect width="848" height="537.132" fill="white"/>
</clipPath>
</defs>
</svg>
