<svg width="585" height="438" viewBox="0 0 585 438" fill="none" xmlns="http://www.w3.org/2000/svg">
<g clip-path="url(#clip0_105_106)">
<path d="M197.488 407.415L188.571 415.647L195.657 403.723C190.074 393.569 180.944 384.794 180.944 384.794C180.944 384.794 162 402.996 162 417.304C162 431.612 170.481 436.607 180.944 436.607C191.406 436.607 199.887 431.612 199.887 417.304C199.769 413.878 198.953 410.512 197.488 407.415Z" fill="#F2F2F2"/>
<path d="M186.278 416.093V416.798C186.236 424.996 184.858 431.392 182.153 435.896C182.115 435.963 182.073 436.025 182.034 436.092L181.732 435.907L181.443 435.725C184.444 430.862 185.505 423.987 185.544 416.837C185.547 416.606 185.551 416.372 185.547 416.139C185.537 413.111 185.352 410.05 185.056 407.075C185.035 406.844 185.011 406.61 184.987 406.377C184.576 402.452 183.984 398.703 183.378 395.445C183.336 395.215 183.291 394.984 183.246 394.757C182.198 389.248 181.129 385.257 180.886 384.374C180.858 384.266 180.84 384.206 180.837 384.192L181.168 384.098L181.171 384.095L181.505 384C181.509 384.014 181.568 384.213 181.665 384.583C182.038 385.966 183.006 389.719 183.956 394.67C183.998 394.893 184.043 395.124 184.085 395.354C184.579 397.997 185.063 400.951 185.446 404.051C185.544 404.83 185.631 405.598 185.707 406.356C185.735 406.59 185.759 406.824 185.78 407.054C186.101 410.27 186.267 413.283 186.278 416.093Z" fill="white"/>
<path d="M183.956 394.67C183.723 394.701 183.486 394.733 183.246 394.757C182.594 394.825 181.938 394.858 181.282 394.859C178.488 394.862 175.728 394.237 173.206 393.029C173.06 393.214 172.913 393.399 172.764 393.588C175.417 394.886 178.33 395.56 181.282 395.557C181.982 395.557 182.682 395.519 183.378 395.445C183.615 395.421 183.852 395.389 184.085 395.354C186.01 395.077 187.882 394.509 189.638 393.668C189.488 393.476 189.342 393.287 189.199 393.102C187.538 393.881 185.771 394.409 183.956 394.67Z" fill="white"/>
<path d="M185.707 406.356C185.467 406.37 185.227 406.377 184.987 406.377C184.914 406.38 184.837 406.38 184.764 406.38C181.736 406.38 178.752 405.646 176.068 404.24C173.384 402.833 171.079 400.797 169.349 398.304C169.21 398.51 169.07 398.716 168.935 398.926C170.738 401.448 173.114 403.503 175.867 404.921C178.62 406.339 181.67 407.078 184.764 407.078C184.862 407.078 184.959 407.078 185.056 407.075C185.3 407.071 185.54 407.064 185.781 407.054C189.498 406.863 193.081 405.602 196.103 403.423C195.991 403.217 195.88 403.011 195.765 402.805C192.828 404.945 189.333 406.179 185.707 406.356Z" fill="white"/>
<path d="M186.278 416.093C186.034 416.114 185.791 416.128 185.547 416.138C185.286 416.149 185.025 416.156 184.764 416.156C180.694 416.151 176.736 414.825 173.482 412.375C170.227 409.926 167.851 406.485 166.71 402.567C166.553 402.85 166.396 403.129 166.247 403.412C167.533 407.32 170.014 410.723 173.338 413.136C176.662 415.549 180.66 416.85 184.764 416.854C185.025 416.854 185.286 416.851 185.543 416.837C185.791 416.83 186.034 416.816 186.278 416.798C191.2 416.412 195.792 414.164 199.124 410.51C199.051 410.252 198.967 409.997 198.884 409.739C195.666 413.42 191.144 415.699 186.278 416.093Z" fill="white"/>
<path d="M531.997 419.944L519.897 420.644L532.914 415.925C535.013 404.522 533.496 391.93 533.496 391.93C533.496 391.93 507.34 393.968 498.298 405.034C489.255 416.101 492.658 425.357 500.75 432.007C508.843 438.657 518.56 440.185 527.602 429.118C529.676 426.393 531.172 423.271 531.997 419.944Z" fill="#F2F2F2"/>
<path d="M517.841 419.531L517.395 420.076C512.182 426.391 507.073 430.462 502.135 432.226C502.063 432.253 501.991 432.275 501.919 432.302L501.802 431.966L501.693 431.642C507.088 429.788 512.254 425.145 516.803 419.639C516.951 419.463 517.102 419.284 517.247 419.101C519.152 416.753 520.944 414.268 522.595 411.779C522.725 411.587 522.854 411.391 522.983 411.194C525.145 407.898 527.057 404.621 528.647 401.717C528.761 401.512 528.871 401.305 528.98 401.101C531.651 396.173 533.347 392.407 533.716 391.569C533.763 391.467 533.787 391.41 533.793 391.397L534.109 391.535L534.114 391.534L534.432 391.674C534.426 391.687 534.346 391.878 534.187 392.227C533.601 393.533 531.978 397.051 529.584 401.484C529.475 401.684 529.365 401.891 529.251 402.096C527.963 404.454 526.471 407.046 524.808 409.688C524.391 410.352 523.973 411.002 523.553 411.636C523.427 411.835 523.298 412.031 523.169 412.223C521.384 414.914 519.608 417.35 517.841 419.531Z" fill="white"/>
<path d="M529.584 401.484C529.384 401.36 529.181 401.234 528.98 401.1C528.433 400.738 527.905 400.347 527.397 399.931C525.233 398.157 523.493 395.919 522.306 393.382C522.076 393.432 521.846 393.482 521.611 393.533C522.843 396.224 524.671 398.597 526.956 400.471C527.497 400.916 528.062 401.331 528.648 401.717C528.846 401.848 529.049 401.974 529.251 402.096C530.916 403.105 532.723 403.856 534.612 404.321C534.618 404.077 534.624 403.838 534.63 403.605C532.853 403.151 531.153 402.436 529.584 401.484Z" fill="white"/>
<path d="M523.554 411.636C523.359 411.494 523.169 411.347 522.983 411.194C522.924 411.15 522.865 411.102 522.809 411.055C520.466 409.13 518.623 406.666 517.435 403.872C516.248 401.078 515.752 398.038 515.989 395.01C515.751 395.081 515.513 395.152 515.276 395.227C515.076 398.324 515.616 401.425 516.849 404.271C518.082 407.117 519.974 409.628 522.367 411.595C522.443 411.657 522.518 411.719 522.596 411.778C522.786 411.931 522.977 412.078 523.169 412.223C526.165 414.438 529.733 415.74 533.448 415.975C533.492 415.745 533.536 415.515 533.577 415.283C529.953 415.071 526.47 413.804 523.554 411.636Z" fill="white"/>
<path d="M517.841 419.531C517.639 419.392 517.442 419.248 517.247 419.101C517.038 418.943 516.832 418.783 516.63 418.617C513.486 416.027 511.262 412.484 510.293 408.521C509.324 404.557 509.661 400.386 511.254 396.63C510.954 396.749 510.656 396.866 510.361 396.989C508.886 400.83 508.656 405.039 509.702 409.018C510.748 412.997 513.018 416.545 516.189 419.157C516.391 419.323 516.595 419.486 516.803 419.639C516.999 419.791 517.196 419.935 517.395 420.076C521.447 422.906 526.419 424.087 531.306 423.378C531.412 423.132 531.509 422.882 531.607 422.629C526.792 423.431 521.854 422.319 517.841 419.531Z" fill="white"/>
<path d="M112.22 428.167L121.655 428.167L123.406 391.472L112.218 391.669L112.22 428.167Z" fill="#FFB6B6"/>
<path d="M109.813 425.078L128.394 425.077H128.395C131.535 425.077 134.547 426.329 136.768 428.556C138.988 430.783 140.236 433.803 140.236 436.953V437.339L109.814 437.34L109.813 425.078Z" fill="#2F2E41"/>
<path d="M74.0777 428.167L83.5129 428.167L85.383 391.472L74.0757 391.669L74.0777 428.167Z" fill="#FFB6B6"/>
<path d="M71.6709 425.078L90.2521 425.077H90.2528C93.3933 425.077 96.405 426.329 98.6257 428.556C100.846 430.783 102.094 433.803 102.094 436.953V437.339L71.6715 437.34L71.6709 425.078Z" fill="#2F2E41"/>
<path d="M165.987 270.965C165.949 269.869 165.673 268.794 165.176 267.817C164.68 266.84 163.976 265.984 163.114 265.309C162.252 264.634 161.253 264.157 160.187 263.911C159.122 263.665 158.015 263.657 156.946 263.886L143.17 241.087L137.249 253.603L151.238 273.335C151.742 275.111 152.877 276.64 154.43 277.632C155.982 278.625 157.844 279.012 159.662 278.72C161.48 278.427 163.128 277.477 164.294 276.047C165.459 274.618 166.062 272.81 165.987 270.965Z" fill="#FFB6B6"/>
<path d="M50.8704 294.813C51.5132 293.926 51.9543 292.908 52.1625 291.831C52.3707 290.755 52.341 289.645 52.0755 288.582C51.81 287.518 51.3151 286.525 50.6257 285.674C49.9364 284.822 49.0692 284.133 48.0854 283.654L51.2116 257.18L38.8657 263.394L37.7898 287.581C37.0972 289.292 37.0543 291.198 37.6694 292.939C38.2845 294.679 39.5149 296.133 41.1272 297.024C42.7396 297.915 44.622 298.183 46.4177 297.775C48.2135 297.368 49.7977 296.314 50.8704 294.813Z" fill="#FFB6B6"/>
<path d="M117.752 267.995L124.433 271.965C124.433 271.965 129.862 275.43 128.037 299.538C126.211 323.645 124.029 420.229 124.029 420.229H112.186L93.0049 304.854L86.0061 421.479L73.5394 420.854C73.5394 420.854 48.0687 288.076 59.0899 273.666L117.752 267.995Z" fill="#2F2E41"/>
<path d="M55.0576 182.682C55.0576 182.682 87.5497 172.206 113.765 181.973L111.619 232.687L127.79 272.246C127.79 272.246 76.381 292.245 59.2492 275.438L64.2457 235.813L55.0576 182.682Z" fill="#3943B7"/>
<path d="M105.03 187.929L111.839 181.973C111.839 181.973 116.381 181.919 120.29 188.927C124.198 195.935 131.279 218.555 131.279 218.555L153.95 257.067L143.976 263.944L108.021 213.514L105.03 187.929Z" fill="#3943B7"/>
<path d="M56.2631 185.183L56.7275 182.005C56.7275 182.005 44.0674 182.945 42.9964 195.179C41.9255 207.413 38.0098 276.447 38.0098 276.447L50.5325 278.947L62.9899 208.094L56.2631 185.183Z" fill="#3943B7"/>
<path d="M100.153 164.353L62.1702 171.854C61.3887 172.007 60.5785 171.844 59.9172 171.399C59.256 170.954 58.7977 170.264 58.643 169.481L55.4191 153.061C54.2768 147.228 55.4913 141.178 58.7955 136.242C62.0997 131.306 67.2232 127.887 73.0395 126.739C78.8559 125.59 84.8891 126.805 89.8126 130.116C94.7361 133.427 98.147 138.564 99.2954 144.397L102.519 160.816C102.672 161.599 102.509 162.412 102.065 163.075C101.622 163.738 100.934 164.198 100.153 164.353Z" fill="#2F2E41"/>
<path d="M82.4273 167.141C91.481 167.141 98.8205 159.78 98.8205 150.7C98.8205 141.62 91.481 134.26 82.4273 134.26C73.3736 134.26 66.0342 141.62 66.0342 150.7C66.0342 159.78 73.3736 167.141 82.4273 167.141Z" fill="#FFB6B6"/>
<path d="M104.808 145.014L81.5826 149.6L80.6878 146.303L80.1536 149.882L76.5774 150.589L74.8041 144.054L73.7453 151.148L66.8255 152.515L66.761 152.186C65.8602 147.571 66.8216 142.786 69.4343 138.88C72.047 134.975 76.0977 132.269 80.6976 131.355L83.9721 130.708C88.5741 129.805 93.3456 130.769 97.2396 133.389C101.134 136.009 103.832 140.072 104.743 144.685L104.808 145.014Z" fill="#2F2E41"/>
<path d="M85.4758 170.436C85.3009 170.47 85.1233 170.489 84.9452 170.492L67.3477 170.842L61.813 142.653L80.534 138.956L80.1769 139.59C75.2093 148.406 82.4689 159.677 87.2384 165.61C87.5894 166.045 87.8109 166.569 87.8774 167.124C87.944 167.679 87.8529 168.242 87.6147 168.747C87.4167 169.178 87.1196 169.556 86.7478 169.85C86.376 170.143 85.94 170.344 85.4758 170.436Z" fill="#2F2E41"/>
<path d="M335.379 0.18457H108.568V119.622H335.379V0.18457Z" fill="#F2F2F2"/>
<path d="M335.24 0H108.43V13.846H335.24V0Z" fill="#E6E6E6"/>
<path d="M331.134 19.46H113.698V113.326H331.134V19.46Z" fill="white"/>
<path d="M129.923 9.17799C131.184 9.17799 132.207 8.15254 132.207 6.88758C132.207 5.62262 131.184 4.59717 129.923 4.59717C128.662 4.59717 127.639 5.62262 127.639 6.88758C127.639 8.15254 128.662 9.17799 129.923 9.17799Z" fill="white"/>
<path d="M138.591 9.17799C139.853 9.17799 140.875 8.15254 140.875 6.88758C140.875 5.62262 139.853 4.59717 138.591 4.59717C137.33 4.59717 136.308 5.62262 136.308 6.88758C136.308 8.15254 137.33 9.17799 138.591 9.17799Z" fill="white"/>
<path d="M121.231 9.17799C122.492 9.17799 123.515 8.15254 123.515 6.88758C123.515 5.62262 122.492 4.59717 121.231 4.59717C119.97 4.59717 118.947 5.62262 118.947 6.88758C118.947 8.15254 119.97 9.17799 121.231 9.17799Z" fill="white"/>
<path d="M150.741 90.405C152.957 90.405 154.754 88.6033 154.754 86.3809C154.754 84.1584 152.957 82.3567 150.741 82.3567C148.525 82.3567 146.729 84.1584 146.729 86.3809C146.729 88.6033 148.525 90.405 150.741 90.405Z" fill="#E4E4E4"/>
<path d="M186.185 79.866C188.401 79.866 190.198 78.0643 190.198 75.8418C190.198 73.6193 188.401 71.8176 186.185 71.8176C183.969 71.8176 182.173 73.6193 182.173 75.8418C182.173 78.0643 183.969 79.866 186.185 79.866Z" fill="#E4E4E4"/>
<path d="M221.629 90.405C223.845 90.405 225.642 88.6033 225.642 86.3809C225.642 84.1584 223.845 82.3567 221.629 82.3567C219.413 82.3567 217.617 84.1584 217.617 86.3809C217.617 88.6033 219.413 90.405 221.629 90.405Z" fill="#E4E4E4"/>
<path d="M257.074 37.2449C259.29 37.2449 261.086 35.4432 261.086 33.2207C261.086 30.9982 259.29 29.1965 257.074 29.1965C254.858 29.1965 253.061 30.9982 253.061 33.2207C253.061 35.4432 254.858 37.2449 257.074 37.2449Z" fill="#E4E4E4"/>
<path d="M292.517 36.7495C294.733 36.7495 296.53 34.9478 296.53 32.7253C296.53 30.5029 294.733 28.7012 292.517 28.7012C290.301 28.7012 288.505 30.5029 288.505 32.7253C288.505 34.9478 290.301 36.7495 292.517 36.7495Z" fill="#E4E4E4"/>
<path d="M221.714 87.2826L186.185 76.2121L151.143 86.9179L150.34 85.8443L186.185 74.5362L221.545 85.4797L256.682 32.6561L256.824 32.5984L292.268 32.5359L292.767 33.7806L257.464 33.786L221.714 87.2826Z" fill="#E4E4E4"/>
<path d="M373.366 156.608H159.923V269.006H373.366V156.608Z" fill="#F2F2F2"/>
<path d="M373.235 156.434H159.793V169.464H373.235V156.434Z" fill="#E6E6E6"/>
<path d="M369.37 173.995H164.424V263.282H369.37V173.995Z" fill="white"/>
<path d="M180.019 165.072C181.206 165.072 182.168 164.107 182.168 162.916C182.168 161.726 181.206 160.761 180.019 160.761C178.832 160.761 177.87 161.726 177.87 162.916C177.87 164.107 178.832 165.072 180.019 165.072Z" fill="white"/>
<path d="M188.177 165.072C189.363 165.072 190.326 164.107 190.326 162.916C190.326 161.726 189.363 160.761 188.177 160.761C186.99 160.761 186.027 161.726 186.027 162.916C186.027 164.107 186.99 165.072 188.177 165.072Z" fill="white"/>
<path d="M171.84 165.072C173.027 165.072 173.989 164.107 173.989 162.916C173.989 161.726 173.027 160.761 171.84 160.761C170.653 160.761 169.69 161.726 169.69 162.916C169.69 164.107 170.653 165.072 171.84 165.072Z" fill="white"/>
<path d="M515.852 49.2576H262.673V182.58H515.852V49.2576Z" fill="#E6E6E6"/>
<path d="M515.698 49.0515H262.519V64.5073H515.698V49.0515Z" fill="#3943B7"/>
<path d="M509.762 69.2546H268.357V175.14H509.762V69.2546Z" fill="white"/>
<path d="M286.51 59.2965C287.918 59.2965 289.06 58.1518 289.06 56.7398C289.06 55.3278 287.918 54.1831 286.51 54.1831C285.102 54.1831 283.961 55.3278 283.961 56.7398C283.961 58.1518 285.102 59.2965 286.51 59.2965Z" fill="white"/>
<path d="M296.186 59.2965C297.594 59.2965 298.736 58.1518 298.736 56.7398C298.736 55.3278 297.594 54.1831 296.186 54.1831C294.779 54.1831 293.637 55.3278 293.637 56.7398C293.637 58.1518 294.779 59.2965 296.186 59.2965Z" fill="white"/>
<path d="M276.808 59.2965C278.216 59.2965 279.357 58.1518 279.357 56.7398C279.357 55.3278 278.216 54.1831 276.808 54.1831C275.4 54.1831 274.259 55.3278 274.259 56.7398C274.259 58.1518 275.4 59.2965 276.808 59.2965Z" fill="white"/>
<path d="M390.783 92.4561C390.281 92.5228 389.821 92.7701 389.487 93.1519C389.154 93.5338 388.97 94.0241 388.97 94.5318C388.97 95.0394 389.154 95.5298 389.487 95.9116C389.821 96.2934 390.281 96.5407 390.783 96.6075H476.267C476.769 96.5407 477.229 96.2934 477.563 95.9116C477.896 95.5298 478.08 95.0394 478.08 94.5318C478.08 94.0241 477.896 93.5338 477.563 93.1519C477.229 92.7701 476.769 92.5228 476.267 92.4561H390.783Z" fill="#E6E6E6"/>
<path d="M390.783 141.412C390.281 141.479 389.821 141.726 389.487 142.108C389.154 142.49 388.97 142.98 388.97 143.488C388.97 143.996 389.154 144.486 389.487 144.868C389.821 145.25 390.281 145.497 390.783 145.564H476.267C476.769 145.497 477.229 145.25 477.563 144.868C477.896 144.486 478.08 143.996 478.08 143.488C478.08 142.98 477.896 142.49 477.563 142.108C477.229 141.726 476.769 141.479 476.267 141.412H390.783Z" fill="#E6E6E6"/>
<path d="M390.783 104.91C390.281 104.977 389.821 105.224 389.487 105.606C389.154 105.988 388.97 106.478 388.97 106.986C388.97 107.494 389.154 107.984 389.487 108.366C389.821 108.748 390.281 108.995 390.783 109.062H427.567C428.069 108.995 428.529 108.748 428.863 108.366C429.196 107.984 429.38 107.494 429.38 106.986C429.38 106.478 429.196 105.988 428.863 105.606C428.529 105.224 428.069 104.977 427.567 104.91H390.783Z" fill="#E6E6E6"/>
<path d="M390.783 116.781C390.281 116.848 389.821 117.096 389.487 117.477C389.154 117.859 388.97 118.35 388.97 118.857C388.97 119.365 389.154 119.855 389.487 120.237C389.821 120.619 390.281 120.866 390.783 120.933H476.267C476.769 120.866 477.229 120.619 477.563 120.237C477.896 119.855 478.08 119.365 478.08 118.857C478.08 118.35 477.896 117.859 477.563 117.477C477.229 117.096 476.769 116.848 476.267 116.781H390.783Z" fill="#E6E6E6"/>
<path d="M390.783 129.236C390.281 129.303 389.821 129.55 389.487 129.932C389.154 130.314 388.97 130.804 388.97 131.312C388.97 131.819 389.154 132.31 389.487 132.691C389.821 133.073 390.281 133.32 390.783 133.387H427.567C428.069 133.32 428.529 133.073 428.863 132.691C429.196 132.31 429.38 131.819 429.38 131.312C429.38 130.804 429.196 130.314 428.863 129.932C428.529 129.55 428.069 129.303 427.567 129.236H390.783Z" fill="#E6E6E6"/>
<path d="M340.963 143.29C341.222 143.29 341.478 143.24 341.718 143.141C341.957 143.042 342.175 142.896 342.358 142.713C342.542 142.529 342.687 142.312 342.787 142.072C342.886 141.832 342.937 141.575 342.937 141.315C342.937 141.055 342.887 140.798 342.787 140.558C342.688 140.318 342.543 140.1 342.36 139.916C342.177 139.733 341.959 139.587 341.72 139.488C341.48 139.389 341.224 139.338 340.965 139.338H300.999C300.74 139.338 300.484 139.388 300.244 139.487C300.005 139.586 299.787 139.731 299.604 139.915C299.42 140.098 299.275 140.316 299.176 140.556C299.076 140.796 299.025 141.053 299.025 141.313C299.025 141.573 299.076 141.83 299.175 142.07C299.274 142.31 299.419 142.528 299.602 142.712C299.786 142.895 300.003 143.041 300.243 143.14C300.482 143.239 300.739 143.29 300.998 143.29H340.963Z" fill="#E4E4E4"/>
<path d="M340.963 131.649C341.485 131.648 341.985 131.439 342.353 131.069C342.722 130.699 342.929 130.197 342.929 129.673C342.929 129.15 342.722 128.648 342.353 128.277C341.985 127.907 341.485 127.698 340.963 127.698H300.999C300.74 127.697 300.484 127.748 300.244 127.847C300.005 127.945 299.787 128.091 299.604 128.274C299.42 128.458 299.275 128.676 299.176 128.915C299.076 129.155 299.025 129.413 299.025 129.672C299.025 129.932 299.076 130.189 299.175 130.429C299.274 130.669 299.419 130.887 299.602 131.071C299.786 131.254 300.003 131.4 300.243 131.499C300.482 131.598 300.739 131.649 300.998 131.649H340.963Z" fill="#E4E4E4"/>
<path d="M320.981 94.7302C323.434 94.7302 325.831 95.4596 327.87 96.8261C329.91 98.1927 331.499 100.135 332.438 102.407C333.376 104.68 333.622 107.18 333.143 109.593C332.665 112.005 331.484 114.221 329.749 115.96C328.015 117.7 325.806 118.884 323.4 119.364C320.995 119.844 318.501 119.598 316.236 118.656C313.97 117.715 312.033 116.121 310.67 114.076C309.308 112.031 308.581 109.626 308.581 107.167C308.584 103.869 309.892 100.708 312.217 98.3769C314.541 96.0454 317.693 94.734 320.981 94.7302Z" fill="#3943B7"/>
<path d="M220.696 204.714C223.376 204.714 225.548 202.535 225.548 199.848C225.548 197.16 223.376 194.982 220.696 194.982C218.017 194.982 215.845 197.16 215.845 199.848C215.845 202.535 218.017 204.714 220.696 204.714Z" fill="#E4E4E4"/>
<path d="M298.651 196.061C299.084 196.061 299.512 196.146 299.912 196.311C300.311 196.477 300.675 196.72 300.981 197.026C301.287 197.333 301.53 197.697 301.695 198.097C301.861 198.498 301.946 198.928 301.946 199.361C301.946 199.795 301.861 200.225 301.695 200.625C301.53 201.026 301.287 201.39 300.981 201.696C300.675 202.003 300.311 202.246 299.912 202.411C299.512 202.577 299.084 202.662 298.651 202.661H247.624C247.191 202.662 246.763 202.577 246.363 202.411C245.963 202.246 245.6 202.003 245.294 201.696C244.988 201.39 244.745 201.026 244.579 200.625C244.414 200.225 244.328 199.795 244.328 199.361C244.328 198.928 244.414 198.498 244.579 198.097C244.745 197.697 244.988 197.333 245.294 197.026C245.6 196.72 245.963 196.477 246.363 196.311C246.763 196.146 247.191 196.061 247.624 196.061H298.651ZM298.651 195.253H247.624C246.537 195.253 245.495 195.686 244.727 196.456C243.959 197.227 243.527 198.272 243.527 199.361C243.527 200.451 243.959 201.496 244.727 202.266C245.495 203.037 246.537 203.469 247.624 203.469H298.651C299.737 203.469 300.779 203.037 301.547 202.266C302.316 201.496 302.747 200.451 302.747 199.361C302.747 198.272 302.316 197.227 301.547 196.456C300.779 195.686 299.737 195.253 298.651 195.253Z" fill="#E4E4E4"/>
<path d="M278.517 203.469H240.104C239.017 203.469 237.975 203.037 237.207 202.266C236.439 201.496 236.007 200.451 236.007 199.361C236.007 198.272 236.439 197.227 237.207 196.456C237.975 195.686 239.017 195.253 240.104 195.253H278.517C279.603 195.253 280.645 195.686 281.413 196.456C282.181 197.227 282.613 198.272 282.613 199.361C282.613 200.451 282.181 201.496 281.413 202.266C280.645 203.037 279.603 203.469 278.517 203.469Z" fill="#E4E4E4"/>
<path d="M220.696 224.919C223.376 224.919 225.548 222.74 225.548 220.053C225.548 217.365 223.376 215.187 220.696 215.187C218.017 215.187 215.845 217.365 215.845 220.053C215.845 222.74 218.017 224.919 220.696 224.919Z" fill="#E4E4E4"/>
<path d="M298.651 216.266C299.084 216.266 299.512 216.351 299.912 216.516C300.311 216.682 300.675 216.925 300.981 217.231C301.287 217.538 301.53 217.902 301.695 218.302C301.861 218.703 301.946 219.133 301.946 219.566C301.946 220 301.861 220.43 301.695 220.83C301.53 221.231 301.287 221.595 300.981 221.901C300.675 222.208 300.311 222.451 299.912 222.616C299.512 222.782 299.084 222.867 298.651 222.866H247.624C247.191 222.867 246.763 222.782 246.363 222.616C245.963 222.451 245.6 222.208 245.294 221.901C244.988 221.595 244.745 221.231 244.579 220.83C244.414 220.43 244.328 220 244.328 219.566C244.328 219.133 244.414 218.703 244.579 218.302C244.745 217.902 244.988 217.538 245.294 217.231C245.6 216.925 245.963 216.682 246.363 216.516C246.763 216.351 247.191 216.266 247.624 216.266H298.651ZM298.651 215.458H247.624C246.537 215.458 245.495 215.891 244.727 216.662C243.959 217.432 243.527 218.477 243.527 219.566C243.527 220.656 243.959 221.701 244.727 222.471C245.495 223.242 246.537 223.674 247.624 223.674H298.651C299.737 223.674 300.779 223.242 301.547 222.471C302.316 221.701 302.747 220.656 302.747 219.566C302.747 218.477 302.316 217.432 301.547 216.662C300.779 215.891 299.737 215.458 298.651 215.458Z" fill="#E4E4E4"/>
<path d="M293.022 223.674H240.104C239.017 223.674 237.975 223.242 237.207 222.471C236.439 221.701 236.007 220.656 236.007 219.566C236.007 218.477 236.439 217.432 237.207 216.662C237.975 215.891 239.017 215.458 240.104 215.458H293.022C294.108 215.46 295.148 215.893 295.915 216.663C296.682 217.434 297.113 218.478 297.113 219.566C297.113 220.655 296.682 221.699 295.915 222.469C295.148 223.24 294.108 223.673 293.022 223.674Z" fill="#E4E4E4"/>
<path d="M220.696 245.124C223.376 245.124 225.548 242.945 225.548 240.258C225.548 237.571 223.376 235.392 220.696 235.392C218.017 235.392 215.845 237.571 215.845 240.258C215.845 242.945 218.017 245.124 220.696 245.124Z" fill="#E4E4E4"/>
<path d="M298.651 236.472C299.524 236.472 300.361 236.819 300.978 237.438C301.595 238.057 301.941 238.896 301.941 239.771C301.941 240.647 301.595 241.486 300.978 242.105C300.361 242.724 299.524 243.071 298.651 243.071H247.624C246.751 243.071 245.914 242.724 245.297 242.105C244.68 241.486 244.333 240.647 244.333 239.771C244.333 238.896 244.68 238.057 245.297 237.438C245.914 236.819 246.751 236.472 247.624 236.472H298.651ZM298.651 235.663H247.624C246.537 235.663 245.495 236.096 244.727 236.867C243.959 237.637 243.527 238.682 243.527 239.771C243.527 240.861 243.959 241.906 244.727 242.676C245.495 243.447 246.537 243.88 247.624 243.88H298.651C299.737 243.88 300.779 243.447 301.547 242.676C302.316 241.906 302.747 240.861 302.747 239.771C302.747 238.682 302.316 237.637 301.547 236.867C300.779 236.096 299.737 235.663 298.651 235.663Z" fill="#E4E4E4"/>
<path d="M298.833 243.879H240.104C239.017 243.879 237.975 243.447 237.207 242.676C236.439 241.906 236.007 240.861 236.007 239.771C236.007 238.682 236.439 237.637 237.207 236.867C237.975 236.096 239.017 235.663 240.104 235.663H298.833C299.919 235.663 300.961 236.096 301.729 236.867C302.498 237.637 302.929 238.682 302.929 239.771C302.929 240.861 302.498 241.906 301.729 242.676C300.961 243.447 299.919 243.879 298.833 243.879Z" fill="#E4E4E4"/>
<path d="M451.526 293.055C452.119 292.347 452.55 291.518 452.788 290.625C453.027 289.732 453.067 288.798 452.907 287.887C452.746 286.977 452.389 286.113 451.859 285.357C451.33 284.6 450.642 283.969 449.843 283.508L454.033 261.436L443.287 265.927L440.955 286.199C440.272 287.596 440.123 289.196 440.538 290.696C440.952 292.196 441.901 293.491 443.204 294.336C444.507 295.181 446.074 295.517 447.608 295.281C449.141 295.045 450.535 294.253 451.526 293.055Z" fill="#FFB7B7"/>
<path d="M505.108 428.494L496.008 428.493L491.68 393.294L505.11 393.295L505.108 428.494Z" fill="#FFB7B7"/>
<path d="M507.428 437.34L478.088 437.339V436.966C478.089 433.929 479.292 431.016 481.433 428.868C483.575 426.721 486.48 425.514 489.508 425.514H489.509L507.429 425.514L507.428 437.34Z" fill="#2F2E41"/>
<path d="M455.38 428.494L446.281 428.493L441.952 393.294L455.382 393.295L455.38 428.494Z" fill="#FFB7B7"/>
<path d="M455.474 437.34L426.134 437.339V436.966C426.134 433.929 427.338 431.016 429.479 428.868C431.621 426.721 434.526 425.514 437.554 425.514H437.555L455.475 425.514L455.474 437.34Z" fill="#2F2E41"/>
<path d="M454.634 279.83L445.728 300.408L438.381 418.686L456.936 417.942L462.004 361.558L477.637 311.339L486.624 367.326L490.335 416.452L505.688 417.119L511.807 279.83H454.634Z" fill="#2F2E41"/>
<path d="M499.155 178.288L473.341 178.936L458.186 186.738L457.354 244.305L447.902 284.05C447.902 284.05 506.96 288.126 515.124 282.171L505.476 236.766L518.417 187.695L499.155 178.288Z" fill="#3F3D56"/>
<path d="M460.943 187.638L458.186 186.738C458.186 186.738 449.439 192.368 450.271 205.979C450.271 205.979 449.944 213.022 450.257 217.71C450.616 223.086 439.866 276.514 439.866 276.514H455.452L462.132 228.131L460.943 187.638Z" fill="#3F3D56"/>
<path d="M518.012 293.799C517.419 293.092 516.988 292.262 516.75 291.369C516.511 290.477 516.471 289.542 516.631 288.632C516.791 287.722 517.149 286.858 517.678 286.101C518.208 285.344 518.896 284.713 519.695 284.252L515.505 262.18L526.251 266.672L528.583 286.943C529.266 288.34 529.414 289.941 529 291.44C528.585 292.94 527.637 294.235 526.334 295.08C525.031 295.925 523.464 296.262 521.93 296.026C520.396 295.79 519.002 294.997 518.012 293.799Z" fill="#FFB7B7"/>
<path d="M514.532 188.383L517.29 187.483C517.29 187.483 526.037 193.112 525.204 206.724C525.204 206.724 525.532 213.767 525.219 218.454C524.86 223.831 529.672 277.258 529.672 277.258H514.086L507.406 228.875L514.532 188.383Z" fill="#3F3D56"/>
<path d="M505.492 154.136C505.492 157.686 504.442 161.156 502.476 164.107C500.51 167.058 497.715 169.358 494.445 170.717C491.175 172.075 487.577 172.43 484.106 171.738C480.635 171.045 477.446 169.336 474.944 166.826C472.441 164.317 470.737 161.119 470.046 157.638C469.356 154.156 469.71 150.548 471.065 147.269C472.419 143.989 474.713 141.186 477.655 139.215C480.598 137.243 484.058 136.19 487.597 136.19C489.941 136.184 492.264 136.641 494.431 137.536C496.599 138.43 498.57 139.743 500.232 141.402C501.894 143.06 503.213 145.03 504.116 147.2C505.018 149.369 505.486 151.696 505.492 154.047C505.492 154.077 505.492 154.107 505.492 154.136Z" fill="#FFB7B7"/>
<path d="M469.762 130.031C471.858 125.51 475.915 126.404 479.463 127.937C483.956 126.937 488.229 123.945 493.069 125.714C497.838 132.67 513.847 130.623 510.441 141.947C510.436 144.66 515.532 143.081 514.642 147.525C517.341 156.077 504.899 172.273 497.757 168.862C499.523 165.615 503.559 158.24 497.438 157.509C484.272 169.795 496.08 134.114 479.537 144.49C474.059 149.518 466.561 135.06 469.762 130.031Z" fill="#2F2E41"/>
<path d="M584.323 437.984H0.677083C0.49751 437.984 0.32529 437.913 0.198313 437.785C0.0713348 437.658 0 437.485 0 437.305C0 437.125 0.0713348 436.952 0.198313 436.825C0.32529 436.698 0.49751 436.626 0.677083 436.626H584.323C584.503 436.626 584.675 436.698 584.802 436.825C584.929 436.952 585 437.125 585 437.305C585 437.485 584.929 437.658 584.802 437.785C584.675 437.913 584.503 437.984 584.323 437.984Z" fill="#CACACA"/>
</g>
<defs>
<clipPath id="clip0_105_106">
<rect width="585" height="437.984" fill="white"/>
</clipPath>
</defs>
</svg>
